<svg xmlns="http://www.w3.org/2000/svg" width="1280" height="720" viewBox="0 0 1280 720" role="img" aria-label="Monthly financial management report preview">
  <rect width="1280" height="720" fill="#f3f7fb"/>
  <rect x="64" y="64" width="1152" height="592" rx="24" fill="#ffffff" stroke="#d9e3ef" stroke-width="3"/>
  <rect x="104" y="104" width="1072" height="82" rx="16" fill="#0d111c"/>
  <text x="136" y="156" fill="#ffffff" font-family="Arial, sans-serif" font-size="34" font-weight="700">Monthly Financial Management</text>
  <rect x="104" y="230" width="300" height="292" rx="18" fill="#ecfeff" stroke="#bae6fd"/>
  <text x="132" y="280" fill="#0f172a" font-family="Arial, sans-serif" font-size="24" font-weight="700">P&amp;L</text>
  <rect x="132" y="330" width="210" height="18" rx="9" fill="#22d3ee"/>
  <rect x="132" y="384" width="160" height="18" rx="9" fill="#94a3b8"/>
  <rect x="132" y="438" width="238" height="18" rx="9" fill="#cbd5e1"/>
  <rect x="466" y="230" width="300" height="292" rx="18" fill="#f8fafc" stroke="#dbe4ee"/>
  <text x="494" y="280" fill="#0f172a" font-family="Arial, sans-serif" font-size="24" font-weight="700">Cash flow</text>
  <path d="M506 438l54-74 58 36 52-96 54 56" fill="none" stroke="#22c55e" stroke-width="12" stroke-linecap="round" stroke-linejoin="round"/>
  <rect x="828" y="230" width="348" height="292" rx="18" fill="#fff7ed" stroke="#fed7aa"/>
  <text x="856" y="280" fill="#0f172a" font-family="Arial, sans-serif" font-size="24" font-weight="700">Budget variance</text>
  <rect x="856" y="332" width="252" height="30" rx="15" fill="#f97316"/>
  <rect x="856" y="394" width="178" height="30" rx="15" fill="#22c55e"/>
  <rect x="856" y="456" width="220" height="30" rx="15" fill="#eab308"/>
</svg>
